<svg xmlns="http://www.w3.org/2000/svg" viewBox="0 0 200 200" width="200" height="200">
  <defs>
    <radialGradient id="bg2" cx="50%" cy="50%" r="50%">
      <stop offset="0%" stop-color="#1a0510"/>
      <stop offset="100%" stop-color="#0a0208"/>
    </radialGradient>
  </defs>
  <circle cx="100" cy="100" r="100" fill="url(#bg2)"/>
  <!-- rings pulsing red/orange for alert state -->
  <circle cx="100" cy="100" r="25" fill="none" stroke="#993366" stroke-width="1" opacity="0.2"/>
  <circle cx="100" cy="100" r="33" fill="none" stroke="#ff6600" stroke-width="1.5" opacity="0.5"/>
  <circle cx="100" cy="100" r="41" fill="none" stroke="#ffaa00" stroke-width="2" opacity="0.5"/>
  <circle cx="100" cy="100" r="49" fill="none" stroke="#ff4444" stroke-width="2" opacity="0.6"/>
  <circle cx="100" cy="100" r="57" fill="none" stroke="#ff2222" stroke-width="1.5" opacity="0.4"/>
  <circle cx="100" cy="100" r="65" fill="none" stroke="#aa44ff" stroke-width="1" opacity="0.3"/>
  <circle cx="100" cy="100" r="73" fill="none" stroke="#ff4444" stroke-width="1" opacity="0.3"/>
  <!-- center CRA -->
  <circle cx="100" cy="100" r="12" fill="#ff4444" opacity="0.3"/>
  <text x="100" y="95" text-anchor="middle" font-family="monospace" font-size="14" font-weight="bold" fill="#ff4444" opacity="0.9">62%</text>
  <text x="100" y="107" text-anchor="middle" font-family="monospace" font-size="6" fill="#ff8800" opacity="0.7">CRASH RISK</text>
  <!-- alert message -->
  <text x="100" y="130" text-anchor="middle" font-family="monospace" font-size="7" fill="#ff6600" opacity="0.8">K+ attention needed</text>
  <!-- biomarker dots around edge — red/orange for alerts -->
  <circle cx="100" cy="27" r="3" fill="#ff4444" opacity="0.7"/>
  <circle cx="135" cy="35" r="3" fill="#ff8800" opacity="0.7"/>
  <circle cx="160" cy="60" r="3" fill="#44aa44" opacity="0.7"/>
  <circle cx="170" cy="95" r="3" fill="#44aa44" opacity="0.7"/>
  <circle cx="160" cy="130" r="3" fill="#ffaa00" opacity="0.7"/>
  <circle cx="135" cy="160" r="3" fill="#44aa44" opacity="0.7"/>
  <circle cx="100" cy="172" r="3" fill="#ff4444" opacity="0.7"/>
  <circle cx="65" cy="160" r="3" fill="#44aa44" opacity="0.7"/>
  <circle cx="40" cy="130" r="3" fill="#44aa44" opacity="0.7"/>
  <circle cx="30" cy="95" r="3" fill="#ff8800" opacity="0.7"/>
  <!-- chips -->
  <text x="30" y="185" font-family="monospace" font-size="7" fill="#ff4444" opacity="0.7">K 3.1</text>
  <text x="75" y="185" font-family="monospace" font-size="7" fill="#ff8800" opacity="0.7">Mg 1.5</text>
  <text x="120" y="185" font-family="monospace" font-size="7" fill="#ffaa00" opacity="0.6">H2O .4</text>
</svg>
